<?xml version="1.0" encoding="UTF-8" standalone="no"?>
<!DOCTYPE svg PUBLIC "-//W3C//DTD SVG 1.1//EN"
 "http://www.w3.org/Graphics/SVG/1.1/DTD/svg11.dtd">
<!-- Generated by graphviz version 2.43.0 (0)
 -->
<!-- Title: %3 Pages: 1 -->
<svg width="353pt" height="370pt"
 viewBox="0.00 0.00 353.00 370.00" xmlns="http://www.w3.org/2000/svg" xmlns:xlink="http://www.w3.org/1999/xlink">
<g id="graph0" class="graph" transform="scale(1 1) rotate(0) translate(4 366)">
<title>%3</title>
<polygon fill="white" stroke="transparent" points="-4,4 -4,-366 349,-366 349,4 -4,4"/>
<!-- Album -->
<g id="node1" class="node">
<title>Album</title>
<polygon fill="white" stroke="transparent" points="345,-118 268,-118 268,-25 345,-25 345,-118"/>
<polygon fill="none" stroke="black" points="276.5,-96.5 276.5,-113.5 337.5,-113.5 337.5,-96.5 276.5,-96.5"/>
<text text-anchor="start" x="279.5" y="-103.5" font-family="Courier,monospace" font-weight="bold" font-size="10.00">Album</text>
<polygon fill="none" stroke="black" points="276.5,-79.5 276.5,-96.5 337.5,-96.5 337.5,-79.5 276.5,-79.5"/>
<text text-anchor="start" x="279.5" y="-86.5" font-family="Courier,monospace" text-decoration="underline" font-size="10.00">id</text>
<polygon fill="none" stroke="black" points="276.5,-62.5 276.5,-79.5 337.5,-79.5 337.5,-62.5 276.5,-62.5"/>
<text text-anchor="start" x="279.5" y="-68.5" font-family="Courier,monospace" font-size="10.00">titulo</text>
<polygon fill="none" stroke="black" points="276.5,-45.5 276.5,-62.5 337.5,-62.5 337.5,-45.5 276.5,-45.5"/>
<text text-anchor="start" x="279.5" y="-51.5" font-family="Courier,monospace" font-size="10.00">url</text>
<polygon fill="none" stroke="black" points="276.5,-28.5 276.5,-45.5 337.5,-45.5 337.5,-28.5 276.5,-28.5"/>
<text text-anchor="start" x="279.5" y="-34.5" font-family="Courier,monospace" font-size="10.00">categoria</text>
</g>
<!-- Musica -->
<g id="node2" class="node">
<title>Musica</title>
<polygon fill="white" stroke="transparent" points="232,-238 119,-238 119,-77 232,-77 232,-238"/>
<polygon fill="none" stroke="black" points="127.5,-216.5 127.5,-233.5 224.5,-233.5 224.5,-216.5 127.5,-216.5"/>
<text text-anchor="start" x="130.5" y="-223.5" font-family="Courier,monospace" font-weight="bold" font-size="10.00">Musica</text>
<polygon fill="none" stroke="black" points="127.5,-199.5 127.5,-216.5 224.5,-216.5 224.5,-199.5 127.5,-199.5"/>
<text text-anchor="start" x="130.5" y="-206.5" font-family="Courier,monospace" text-decoration="underline" font-size="10.00">id</text>
<polygon fill="none" stroke="black" points="127.5,-182.5 127.5,-199.5 224.5,-199.5 224.5,-182.5 127.5,-182.5"/>
<text text-anchor="start" x="130.5" y="-188.5" font-family="Courier,monospace" font-size="10.00">track_number</text>
<polygon fill="none" stroke="black" points="127.5,-165.5 127.5,-182.5 224.5,-182.5 224.5,-165.5 127.5,-165.5"/>
<text text-anchor="start" x="130.5" y="-171.5" font-family="Courier,monospace" font-size="10.00">titulo</text>
<polygon fill="none" stroke="black" points="127.5,-148.5 127.5,-165.5 224.5,-165.5 224.5,-148.5 127.5,-148.5"/>
<text text-anchor="start" x="130.5" y="-154.5" font-family="Courier,monospace" font-size="10.00">url</text>
<polygon fill="none" stroke="black" points="127.5,-131.5 127.5,-148.5 224.5,-148.5 224.5,-131.5 127.5,-131.5"/>
<text text-anchor="start" x="130.5" y="-137.5" font-family="Courier,monospace" font-size="10.00">data_lancamento</text>
<polygon fill="none" stroke="black" points="127.5,-114.5 127.5,-131.5 224.5,-131.5 224.5,-114.5 127.5,-114.5"/>
<text text-anchor="start" x="130.5" y="-120.5" font-family="Courier,monospace" font-size="10.00">visualizacoes</text>
<polygon fill="none" stroke="black" points="127.5,-97.5 127.5,-114.5 224.5,-114.5 224.5,-97.5 127.5,-97.5"/>
<text text-anchor="start" x="130.5" y="-103.5" font-family="Courier,monospace" font-size="10.00">lyrics</text>
<polygon fill="none" stroke="black" points="127.5,-80.5 127.5,-97.5 224.5,-97.5 224.5,-80.5 127.5,-80.5"/>
<text text-anchor="start" x="130.5" y="-86.5" font-family="Courier,monospace" font-size="10.00">album_id</text>
</g>
<!-- Musica&#45;&gt;Album -->
<g id="edge1" class="edge">
<title>Musica:album_id&#45;&gt;Album:id</title>
<path fill="none" stroke="black" d="M225.5,-88.5C243.9,-88.5 250.88,-88.5 265.35,-88.5"/>
<polygon fill="black" stroke="black" points="265.5,-92 275.5,-88.5 265.5,-85 265.5,-92"/>
</g>
<!-- Pessoa -->
<g id="node3" class="node">
<title>Pessoa</title>
<polygon fill="white" stroke="transparent" points="205,-315 146,-315 146,-256 205,-256 205,-315"/>
<polygon fill="none" stroke="black" points="154.5,-293.5 154.5,-310.5 197.5,-310.5 197.5,-293.5 154.5,-293.5"/>
<text text-anchor="start" x="157.5" y="-300.5" font-family="Courier,monospace" font-weight="bold" font-size="10.00">Pessoa</text>
<polygon fill="none" stroke="black" points="154.5,-276.5 154.5,-293.5 197.5,-293.5 197.5,-276.5 154.5,-276.5"/>
<text text-anchor="start" x="157.5" y="-283.5" font-family="Courier,monospace" text-decoration="underline" font-size="10.00">id</text>
<polygon fill="none" stroke="black" points="154.5,-259.5 154.5,-276.5 197.5,-276.5 197.5,-259.5 154.5,-259.5"/>
<text text-anchor="start" x="157.5" y="-265.5" font-family="Courier,monospace" font-size="10.00">nome</text>
</g>
<!-- Tag -->
<g id="node4" class="node">
<title>Tag</title>
<polygon fill="white" stroke="transparent" points="202.5,-59 148.5,-59 148.5,0 202.5,0 202.5,-59"/>
<polygon fill="none" stroke="black" points="160.5,-37.5 160.5,-54.5 191.5,-54.5 191.5,-37.5 160.5,-37.5"/>
<text text-anchor="start" x="163.5" y="-44.5" font-family="Courier,monospace" font-weight="bold" font-size="10.00">Tag</text>
<polygon fill="none" stroke="black" points="160.5,-20.5 160.5,-37.5 191.5,-37.5 191.5,-20.5 160.5,-20.5"/>
<text text-anchor="start" x="163.5" y="-27.5" font-family="Courier,monospace" text-decoration="underline" font-size="10.00">id</text>
<polygon fill="none" stroke="black" points="160.5,-3.5 160.5,-20.5 191.5,-20.5 191.5,-3.5 160.5,-3.5"/>
<text text-anchor="start" x="163.5" y="-9.5" font-family="Courier,monospace" font-size="10.00">nome</text>
</g>
<!-- Interpreta -->
<g id="node5" class="node">
<title>Interpreta</title>
<polygon fill="white" stroke="transparent" points="83,-362 0,-362 0,-303 83,-303 83,-362"/>
<polygon fill="none" stroke="black" points="8.5,-340.5 8.5,-357.5 75.5,-357.5 75.5,-340.5 8.5,-340.5"/>
<text text-anchor="start" x="11.5" y="-347.5" font-family="Courier,monospace" font-weight="bold" font-size="10.00">Interpreta</text>
<polygon fill="none" stroke="black" points="8.5,-323.5 8.5,-340.5 75.5,-340.5 75.5,-323.5 8.5,-323.5"/>
<text text-anchor="start" x="11.5" y="-330.5" font-family="Courier,monospace" text-decoration="underline" font-size="10.00">pessoa_id</text>
<polygon fill="none" stroke="black" points="8.5,-306.5 8.5,-323.5 75.5,-323.5 75.5,-306.5 8.5,-306.5"/>
<text text-anchor="start" x="11.5" y="-313.5" font-family="Courier,monospace" text-decoration="underline" font-size="10.00">musica_id</text>
</g>
<!-- Interpreta&#45;&gt;Musica -->
<g id="edge3" class="edge">
<title>Interpreta:musica_id&#45;&gt;Musica:id</title>
<path fill="none" stroke="black" d="M76.5,-314.5C124.72,-314.5 81.87,-223.65 116.57,-210.17"/>
<polygon fill="black" stroke="black" points="117.22,-213.61 126.5,-208.5 116.06,-206.7 117.22,-213.61"/>
</g>
<!-- Interpreta&#45;&gt;Pessoa -->
<g id="edge2" class="edge">
<title>Interpreta:pessoa_id&#45;&gt;Pessoa:id</title>
<path fill="none" stroke="black" d="M76.5,-331.5C112.83,-331.5 113.62,-292.9 143.29,-285.66"/>
<polygon fill="black" stroke="black" points="143.96,-289.11 153.5,-284.5 143.17,-282.15 143.96,-289.11"/>
</g>
<!-- Escreve -->
<g id="node6" class="node">
<title>Escreve</title>
<polygon fill="white" stroke="transparent" points="80,-285 3,-285 3,-226 80,-226 80,-285"/>
<polygon fill="none" stroke="black" points="11.5,-263.5 11.5,-280.5 72.5,-280.5 72.5,-263.5 11.5,-263.5"/>
<text text-anchor="start" x="14.5" y="-270.5" font-family="Courier,monospace" font-weight="bold" font-size="10.00">Escreve</text>
<polygon fill="none" stroke="black" points="11.5,-246.5 11.5,-263.5 72.5,-263.5 72.5,-246.5 11.5,-246.5"/>
<text text-anchor="start" x="14.5" y="-253.5" font-family="Courier,monospace" text-decoration="underline" font-size="10.00">pessoa_id</text>
<polygon fill="none" stroke="black" points="11.5,-229.5 11.5,-246.5 72.5,-246.5 72.5,-229.5 11.5,-229.5"/>
<text text-anchor="start" x="14.5" y="-236.5" font-family="Courier,monospace" text-decoration="underline" font-size="10.00">musica_id</text>
</g>
<!-- Escreve&#45;&gt;Musica -->
<g id="edge5" class="edge">
<title>Escreve:musica_id&#45;&gt;Musica:id</title>
<path fill="none" stroke="black" d="M73.5,-237.5C96.37,-237.5 99.25,-216.47 116.18,-210.23"/>
<polygon fill="black" stroke="black" points="117.22,-213.6 126.5,-208.5 116.06,-206.7 117.22,-213.6"/>
</g>
<!-- Escreve&#45;&gt;Pessoa -->
<g id="edge4" class="edge">
<title>Escreve:pessoa_id&#45;&gt;Pessoa:id</title>
<path fill="none" stroke="black" d="M73.5,-254.5C107.77,-254.5 114.41,-278.93 143.28,-283.7"/>
<polygon fill="black" stroke="black" points="143.26,-287.21 153.5,-284.5 143.8,-280.23 143.26,-287.21"/>
</g>
<!-- Produz -->
<g id="node7" class="node">
<title>Produz</title>
<polygon fill="white" stroke="transparent" points="80,-208 3,-208 3,-149 80,-149 80,-208"/>
<polygon fill="none" stroke="black" points="11.5,-186.5 11.5,-203.5 72.5,-203.5 72.5,-186.5 11.5,-186.5"/>
<text text-anchor="start" x="14.5" y="-193.5" font-family="Courier,monospace" font-weight="bold" font-size="10.00">Produz</text>
<polygon fill="none" stroke="black" points="11.5,-169.5 11.5,-186.5 72.5,-186.5 72.5,-169.5 11.5,-169.5"/>
<text text-anchor="start" x="14.5" y="-176.5" font-family="Courier,monospace" text-decoration="underline" font-size="10.00">pessoa_id</text>
<polygon fill="none" stroke="black" points="11.5,-152.5 11.5,-169.5 72.5,-169.5 72.5,-152.5 11.5,-152.5"/>
<text text-anchor="start" x="14.5" y="-159.5" font-family="Courier,monospace" text-decoration="underline" font-size="10.00">musica_id</text>
</g>
<!-- Produz&#45;&gt;Musica -->
<g id="edge7" class="edge">
<title>Produz:musica_id&#45;&gt;Musica:id</title>
<path fill="none" stroke="black" d="M73.5,-160.5C101.43,-160.5 96.66,-197.58 116.67,-206.56"/>
<polygon fill="black" stroke="black" points="116.01,-210 126.5,-208.5 117.37,-203.13 116.01,-210"/>
</g>
<!-- Produz&#45;&gt;Pessoa -->
<g id="edge6" class="edge">
<title>Produz:pessoa_id&#45;&gt;Pessoa:id</title>
<path fill="none" stroke="black" d="M73.5,-177.5C129.17,-177.5 98.58,-271.54 143.47,-283.3"/>
<polygon fill="black" stroke="black" points="143.15,-286.79 153.5,-284.5 143.99,-279.84 143.15,-286.79"/>
</g>
<!-- MusicaTag -->
<g id="node8" class="node">
<title>MusicaTag</title>
<polygon fill="white" stroke="transparent" points="80,-118 3,-118 3,-59 80,-59 80,-118"/>
<polygon fill="none" stroke="black" points="11.5,-96.5 11.5,-113.5 72.5,-113.5 72.5,-96.5 11.5,-96.5"/>
<text text-anchor="start" x="14.5" y="-103.5" font-family="Courier,monospace" font-weight="bold" font-size="10.00">MusicaTag</text>
<polygon fill="none" stroke="black" points="11.5,-79.5 11.5,-96.5 72.5,-96.5 72.5,-79.5 11.5,-79.5"/>
<text text-anchor="start" x="14.5" y="-86.5" font-family="Courier,monospace" text-decoration="underline" font-size="10.00">musica_id</text>
<polygon fill="none" stroke="black" points="11.5,-62.5 11.5,-79.5 72.5,-79.5 72.5,-62.5 11.5,-62.5"/>
<text text-anchor="start" x="14.5" y="-69.5" font-family="Courier,monospace" text-decoration="underline" font-size="10.00">tag_id</text>
</g>
<!-- MusicaTag&#45;&gt;Musica -->
<g id="edge8" class="edge">
<title>MusicaTag:musica_id&#45;&gt;Musica:id</title>
<path fill="none" stroke="black" d="M73.5,-87.5C128.31,-87.5 75.8,-192.96 116.36,-206.97"/>
<polygon fill="black" stroke="black" points="116.09,-210.47 126.5,-208.5 117.13,-203.55 116.09,-210.47"/>
</g>
<!-- MusicaTag&#45;&gt;Tag -->
<g id="edge9" class="edge">
<title>MusicaTag:tag_id&#45;&gt;Tag:id</title>
<path fill="none" stroke="black" d="M73.5,-70.5C112.38,-70.5 116.5,-35.41 149.4,-29.38"/>
<polygon fill="black" stroke="black" points="149.84,-32.85 159.5,-28.5 149.23,-25.88 149.84,-32.85"/>
</g>
</g>
</svg>
